<?xml version="1.0" encoding="UTF-8" standalone="no"?>
<!-- Generator: Adobe Illustrator 20.0.0, SVG Export Plug-In . SVG Version: 6.00 Build 0)  -->

<svg
   xmlns:dc="http://purl.org/dc/elements/1.1/"
   xmlns:cc="http://creativecommons.org/ns#"
   xmlns:rdf="http://www.w3.org/1999/02/22-rdf-syntax-ns#"
   xmlns:svg="http://www.w3.org/2000/svg"
   xmlns="http://www.w3.org/2000/svg"
   xmlns:sodipodi="http://sodipodi.sourceforge.net/DTD/sodipodi-0.dtd"
   xmlns:inkscape="http://www.inkscape.org/namespaces/inkscape"
   version="1.1"
   id="Layer_1"
   x="0px"
   y="0px"
   viewBox="0 0 84 64"
   style="enable-background:new 0 0 84 64;"
   xml:space="preserve"
   sodipodi:docname="dead-cloud.svg"
   inkscape:version="0.92.2 5c3e80d, 2017-08-06"><metadata
     id="metadata21"><rdf:RDF><cc:Work
         rdf:about=""><dc:format>image/svg+xml</dc:format><dc:type
           rdf:resource="http://purl.org/dc/dcmitype/StillImage" /><dc:title /></cc:Work></rdf:RDF></metadata><defs
     id="defs19" /><sodipodi:namedview
     pagecolor="#ffffff"
     bordercolor="#666666"
     borderopacity="1"
     objecttolerance="10"
     gridtolerance="10"
     guidetolerance="10"
     inkscape:pageopacity="0"
     inkscape:pageshadow="2"
     inkscape:window-width="1678"
     inkscape:window-height="899"
     id="namedview17"
     showgrid="false"
     inkscape:zoom="5.2149125"
     inkscape:cx="-5.7590043"
     inkscape:cy="32.873715"
     inkscape:window-x="0"
     inkscape:window-y="0"
     inkscape:window-maximized="0"
     inkscape:current-layer="Layer_1"
     showguides="true"
     inkscape:guide-bbox="true"><sodipodi:guide
       position="-7.0950375,34.708157"
       orientation="0,1"
       id="guide122"
       inkscape:locked="false" /><sodipodi:guide
       position="30.489486,75.552562"
       orientation="1,0"
       id="guide124"
       inkscape:locked="false" /><sodipodi:guide
       position="47.322034,38.576271"
       orientation="1,0"
       id="guide126"
       inkscape:locked="false" /><sodipodi:guide
       position="24.832631,30.010091"
       orientation="1,0"
       id="guide4697"
       inkscape:locked="false" /><sodipodi:guide
       position="52.733387,59.34903"
       orientation="1,0"
       id="guide4699"
       inkscape:locked="false" /></sodipodi:namedview><style
     type="text/css"
     id="style2" />
     <path
     id="dead-cloud"
     d="m 43.71875,23.636719 a 2.0002,2.0002 0 0 0 -1.392578,3.435547 l 2.18164,2.18164 -2.18164,2.179688 a 2.000477,2.000477 0 1 0 2.828125,2.830078 l 2.181641,-2.181641 2.18164,2.181641 a 2.000477,2.000477 0 1 0 2.828125,-2.830078 l -2.181641,-2.179688 2.181641,-2.18164 a 2.0002,2.0002 0 1 0 -2.828125,-2.828125 l -2.18164,2.18164 -2.181641,-2.18164 A 2.0002,2.0002 0 0 0 43.71875,23.636719 Z m -16.824766,0.03989 a 2.0002,2.0002 0 0 0 -1.394531,3.435546 l 2.18164,2.179688 -2.18164,2.181641 a 2.000477,2.000477 0 1 0 2.830078,2.828125 l 2.179688,-2.179688 2.18164,2.179688 a 2.0002,2.0002 0 1 0 2.828125,-2.828125 l -2.179687,-2.181641 2.179687,-2.179688 a 2.000477,2.000477 0 1 0 -2.828125,-2.830078 l -2.18164,2.181641 -2.179688,-2.181641 A 2.0002,2.0002 0 0 0 26.893984,23.676609 Z M 38.900391,43 c -4.220513,0 -7.441747,0.81626 -9.632813,1.669922 C 27.076512,45.523584 25.75,46.537109 25.75,46.537109 a 2.5009668,2.5009668 0 1 0 3.099609,3.925782 c 0,0 0.573488,-0.486475 2.232422,-1.132813 C 32.740965,48.68374 35.320903,48 38.900391,48 c 3.579487,0 6.097788,0.681303 7.695312,1.320312 1.597524,0.63901 2.103516,1.09961 2.103516,1.09961 a 2.50025,2.50025 0 1 0 3.201172,-3.839844 c 0,0 -1.29479,-1.0394 -3.447266,-1.90039 C 46.300649,43.818697 43.120903,43 38.900391,43 Z M 34.300781,1.1992188 c -12.745029,0 -23.101562,10.3565332 -23.101562,23.1015622 0,0.21072 0.01584,0.254833 0.02539,0.429688 -6.0777908,3.569304 -10.32421838,10.019745 -10.32421838,17.570312 0,11.263637 9.23636338,20.5 20.50000038,20.5 h 43.699218 c 9.93721,0 18,-8.06279 18,-18 0,-7.419352 -4.549447,-13.795001 -10.998047,-16.509765 0.421545,-1.265063 0.699219,-2.592189 0.699219,-3.990235 C 72.800781,17.255752 67.045029,11.5 60,11.5 c -2.050122,0 -3.915065,0.618348 -5.644531,1.490234 C 50.436823,5.9569523 42.906102,1.1992188 34.300781,1.1992188 Z m 0,5 c 7.572868,-10e-8 14.053394,4.6676642 16.677735,11.2285152 a 2.50025,2.50025 0 0 0 3.982422,0.941407 C 56.318506,17.162413 57.976923,16.5 60,16.5 c 4.354971,0 7.800781,3.44581 7.800781,7.800781 0,1.5 -0.453942,2.947011 -1.220703,4.173828 a 2.50025,2.50025 0 0 0 1.546875,3.759766 c 5.692273,1.339358 9.972656,6.43079 9.972656,12.566406 0,7.262791 -5.737209,13 -13,13 H 21.400391 c -8.536364,0 -15.5000004,-6.963636 -15.5000004,-15.5 0,-6.204629 3.7090748,-11.54061 8.9726564,-14.042969 A 2.50025,2.50025 0 0 0 16.300781,26 c 0,-0.877778 -0.101562,-1.532552 -0.101562,-1.699219 0,-10.054971 8.046591,-18.1015623 18.101562,-18.1015622 z" /></svg>