<?xml version="1.0" encoding="UTF-8" standalone="no"?>
<svg
   xmlns:dc="http://purl.org/dc/elements/1.1/"
   xmlns:cc="http://creativecommons.org/ns#"
   xmlns:rdf="http://www.w3.org/1999/02/22-rdf-syntax-ns#"
   xmlns:svg="http://www.w3.org/2000/svg"
   xmlns="http://www.w3.org/2000/svg"
   xmlns:sodipodi="http://sodipodi.sourceforge.net/DTD/sodipodi-0.dtd"
   xmlns:inkscape="http://www.inkscape.org/namespaces/inkscape"
   id="Layer_1"
   viewBox="0 0 460 177"
   version="1.1"
   sodipodi:docname="IRS-logo-with-text.svg"
   inkscape:version="0.92.2 5c3e80d, 2017-08-06">
  <metadata
     id="metadata13">
    <rdf:RDF>
      <cc:Work
         rdf:about="">
        <dc:format>image/svg+xml</dc:format>
        <dc:type
           rdf:resource="http://purl.org/dc/dcmitype/StillImage" />
        <dc:title />
      </cc:Work>
    </rdf:RDF>
  </metadata>
  <defs
     id="defs11" />
  <sodipodi:namedview
     pagecolor="#ffffff"
     bordercolor="#666666"
     borderopacity="1"
     objecttolerance="10"
     gridtolerance="10"
     guidetolerance="10"
     inkscape:pageopacity="0"
     inkscape:pageshadow="2"
     inkscape:window-width="1113"
     inkscape:window-height="761"
     id="namedview9"
     showgrid="false"
     inkscape:zoom="3.984393"
     inkscape:cx="131.58141"
     inkscape:cy="-20.82716"
     inkscape:window-x="314"
     inkscape:window-y="114"
     inkscape:window-maximized="0"
     inkscape:current-layer="Layer_1"
     showguides="true"
     inkscape:guide-bbox="true">
    <sodipodi:guide
       position="19.876543,119.96914"
       orientation="1,0"
       id="guide3717"
       inkscape:locked="false" />
    <sodipodi:guide
       position="181.7284,-129.19753"
       orientation="1,0"
       id="guide3719"
       inkscape:locked="false" />
  </sodipodi:namedview>
  <path
     id="logo"
     d="m 45.1,135.2 c 2.6,-2.7 11.8,-12.2 13.2,-17.3 1.8,-6.2 3.2,-20.7 3.2,-24 0,0 -9.1,6.1 -13.9,11.1 -2,2.2 -4.9,5.9 -4.9,5.9 -0.9,-5.2 0.3,-11.1 2.6,-14.7 3.2,-4.9 14.3,-14.5 15.8,-18.4 2.4,-6.2 2,-11.7 4.1,-18.5 -7.5,2.4 -16.7,8.2 -21.1,12.9 -0.6,-7.3 1.7,-12.7 6.7,-16.5 7.1,-5.4 16.4,-8.5 22.5,-10.2 5.2,-1.6 13.6,-3.2 17.9,-5.3 7.8,-3.8 15.3,-14.4 17,-20 -2.5,0 -11.7,-0.6 -20.7,3 -3.2,1.3 -4.8,4.3 -6.3,6.7 -1.6,2.6 -3.1,4.6 -4.4,6.4 -3.8,5.6 -8.1,8.2 -13.9,9.7 0.2,-0.5 3.7,-2.6 6.3,-8.2 2.2,-4.6 4.8,-14 4.9,-14.6 -4.9,0.6 -7.9,2 -13,4.1 -5.4,2.2 -7.1,4.4 -8.3,6.5 -3.4,5.6 -2.6,21.1 -9.8,27.2 0.3,-8.2 2,-17 -0.9,-27.2 -15,5.9 -17.8,11.1 -16.7,17.6 1.3,8.4 10.9,12.3 15,19.3 1.2,2.1 1.7,5 1.8,5.2 0.3,0.1 -2.9,4.2 -2,12.1 0,0 -3,-5.8 -5.8,-9.4 C 30,72.9 21.4,64 21.4,64 c -1.7,22.9 1.1,27.3 2.3,29.3 2.8,4.9 13.6,12.5 15.9,16.9 1.1,2.4 1.4,3.3 1.4,3.2 0.4,0.9 -2.2,3.8 -1.7,7.7 0.1,1.4 0.5,3.2 0.8,5.3 0,0 -3.2,-4.7 -7.5,-9.7 -4,-4.6 -11.8,-10 -11.8,-10 -0.5,2.5 0.8,15.3 1.1,17.3 1,6.5 1.3,12.5 6.6,17.9 4.7,4.7 19.7,10.9 22.9,12 0,0 -0.6,-2.9 -2,-7 -1.7,-4.7 -4.4,-11.7 -4.3,-11.7 z M 174,39.1 C 172.2,36 153.2,27.4 125.8,21.8 c -11.3,12 -11.3,16.8 -11.5,18.8 -0.3,2 3.7,7.1 7.8,12.3 7.5,9.6 9.5,11.4 10.6,14.3 2.2,5.5 -1.4,17.9 -4,29.3 0,0 -6.7,-24.2 -9.8,-39.9 -0.3,-1.5 0.3,-2.4 0.3,-2.3 -16.9,-1.6 -28.3,-2.4 -30.3,6.4 -7.8,0 -11.3,2.2 -12.1,3.5 -2,3.3 0.4,10.1 1.7,13.5 1.1,-2.7 8,-2.2 10.3,-2.1 1,0 1,0.6 1.3,1.2 l 0.1,32.8 h -20 l -17.3,46 c 8,3.8 16.4,6.8 21.6,6.8 5.2,0 18.1,-6.7 19.9,-6.8 1.7,0 14.7,6.8 20,6.8 5.2,0 13.5,-2.6 21.6,-6.8 l -17.3,-46 H 98.8 V 78.5 c -0.3,-2.1 -1.3,-2.8 -2,-2.9 h 10.1 c -1.5,-5.9 -3.5,-10 -6.3,-10.3 0.8,-1.2 1.4,-1.6 2.6,-2.7 h -7.8 c 0.8,-4.1 10.9,-2.6 15.3,-2.3 4.5,22.1 12.9,51.7 13.3,52.2 0.4,0.5 7.5,3.1 8.4,3.2 4.1,-8.8 10.3,-34.8 10.7,-41.1 5.2,1.8 3.1,8.7 2,15.5 -5.9,35.7 -10.5,46.4 -11.9,53 5.2,-1.1 8.4,-2 8.9,-2.6 0.8,-0.8 3.2,-6.8 5.3,-13.5 3,-9.7 8,-34.3 7.7,-43.9 0,-2.3 -2,-4.7 -5.5,-6.5 0,0 1.8,-3 2.6,-4.9 1.1,-2.5 2.3,-6.8 2.3,-6.8 2,0.6 3.8,1.5 4.1,3.5 1.1,9.4 0.5,10.2 -0.6,27.5 -0.3,5.5 -2.3,16.4 -4.3,27.8 -3.7,21 -7.2,29.9 -7.2,33.1 5.5,-1.8 9.7,-3.1 10.1,-3.8 0.5,-1 4.6,-11.1 7.5,-26.4 1.2,-6.5 2.1,-13 3.2,-19.6 1.5,-8.8 1.8,-17.9 1.8,-25.5 0,-11.1 1.3,-11.2 -6.9,-15.5 3.1,-9.1 2.5,-15 1.7,-16.7 -1.4,-3.2 -3.1,-3.2 -10.4,-2.7 2.6,2.4 1.8,7.4 1.2,10.3 -1.4,-1.2 -0.9,-3.2 -8.6,-2.9 -1.2,-12.6 -3.5,-14 -3.8,-14.4 -1.1,-1.4 -7.5,-0.8 -9.5,0 1.4,0.9 4.3,10.9 2.9,14.7 -0.9,-1.2 -11.8,-13.5 -11,-15.8 0.5,-1.4 1.2,-2.9 4.9,-7.3 13,2.3 35.2,10.5 36.4,12.9 1.4,2.8 2.7,6.1 3.4,11.1 1.2,7.3 3.4,24.6 2.3,51 -1.1,27.3 -4.7,42.7 -4.6,41.9 4.1,-1.3 10.8,-7.4 11.3,-8.8 1.7,-4.5 2.6,-20.5 3.2,-35.2 0.6,-14.6 -1,-33.2 -1.8,-40.1 C 177.5,47.3 176.3,42.9 174,39.1 Z M 74.5,152.8 c -3.9,0 -10.1,-0.6 -10.1,-0.6 l 10.1,-29 9.3,29 c -0.1,0 -5.7,0.6 -9.3,0.6 z m 49.9,-0.6 c 0,0 -6.2,0.6 -10.1,0.6 -3.6,0 -9.3,-0.6 -9.3,-0.6 l 9.3,-29 z M 98.7,129.6 v -11.1 h 8.7 l -13,36.1 -12.9,-36.1 h 8.6 v 7.9 c 0,0 0,0.7 0.3,0.8 1.2,0.6 1.4,0.6 1.4,0.6 z M 99.8,71 h -15 C 83.7,67.5 84.7,66.6 88,66.3 94.1,65.7 99.3,65.7 99.8,71 Z M 142,55.2 c 5.5,-0.9 2.9,8.8 1.5,12.6 -2,-4.7 -3.5,-7.3 -6.9,-11.7 1.9,-0.6 3.4,-0.6 5.4,-0.9 z" />
  <path
     id="text"
     d="M 83.788945,205.94872 H 80.672818 V 174.3423 c 3.688477,-0.69955 6.613822,-1.08111 8.776032,-1.08111 4.896771,0 8.776031,1.46266 11.76497,4.45161 2.98894,2.98895 4.45161,6.80461 4.45161,11.57419 0,4.83318 -1.84425,8.83963 -5.53271,11.95575 -3.688483,3.17973 -9.09401,4.70598 -16.343775,4.70598 z m 95.455245,10.93825 c -1.39909,-2.73456 -3.37051,-5.15115 -5.97788,-7.18618 -2.60738,-2.03502 -7.44055,-4.96036 -14.49954,-8.77602 -8.71242,-4.64241 -14.18155,-8.39446 -16.47095,-11.19262 -1.58985,-1.90784 -2.41659,-4.00645 -2.41659,-6.29584 0,-2.98895 1.27189,-5.72351 3.81566,-8.0765 2.54379,-2.353 5.7235,-3.56129 9.60275,-3.56129 3.43411,0 6.74102,0.89033 9.98435,2.60738 3.17972,1.78064 5.6599,4.13363 7.44054,7.12257 1.71706,2.98894 2.92535,6.99539 3.62488,12.01935 h 2.09861 v -26.20091 h -2.09861 c -0.38156,1.78064 -0.89032,2.92535 -1.46267,3.49769 -0.63594,0.57236 -1.39909,0.89033 -2.35299,0.89033 -0.89033,0 -2.35299,-0.44518 -4.45161,-1.39908 -4.51521,-1.97143 -8.77604,-2.98894 -12.7825,-2.98894 -6.42303,0 -11.76496,1.97144 -15.96218,5.91428 -4.19723,3.94286 -6.29585,8.64883 -6.29585,14.05437 0,3.11613 0.69953,5.97788 2.09862,8.58525 1.39907,2.60738 3.49769,5.02396 6.23225,7.18616 2.73456,2.16222 7.37695,5.08757 13.86358,8.71244 6.48663,3.6249 10.42949,6.04148 11.89216,7.12258 2.16222,1.65346 3.75207,3.4341 4.76959,5.34194 1.0175,1.90782 1.52625,3.81566 1.52625,5.65989 0,3.37052 -1.33548,6.23226 -4.07003,8.71246 -2.67097,2.48016 -6.35945,3.68846 -11.06543,3.68846 -4.00646,0 -7.75853,-0.89032 -11.12903,-2.67096 -3.3705,-1.78065 -5.91428,-4.00645 -7.50415,-6.74101 -1.65345,-2.73456 -2.92534,-6.8046 -3.94285,-12.21014 h -2.09862 v 22.06727 c -3.11613,-0.69952 -5.02395,-1.58985 -7.24976,-2.98894 -2.54378,-1.65346 -5.6599,-4.96036 -9.22119,-9.92073 L 99.496769,208.11094 c 6.359431,-1.39908 11.065431,-3.81567 14.117971,-7.24977 3.05253,-3.43409 4.57878,-7.50414 4.57878,-12.14653 0,-4.38803 -1.33548,-8.14009 -4.00643,-11.25622 -2.67097,-3.17972 -5.9143,-5.34193 -9.72995,-6.48662 -3.81567,-1.14471 -9.729953,-1.78066 -17.806445,-1.78066 H 59.050711 v 2.09861 h 2.86175 c 2.861748,0 5.023959,0.82674 6.486631,2.4802 1.017512,1.1447 1.589863,4.13363 1.589863,8.90321 v 48.96772 c 0,4.32442 -0.381567,7.05898 -1.144701,8.20367 -1.399078,2.09862 -3.688477,3.11613 -6.868199,3.11613 h -2.925344 v 2.09862 h 32.496754 v -2.09862 h -2.988937 c -2.86175,0 -4.960366,-0.82672 -6.359443,-2.48017 -1.017512,-1.1447 -1.589861,-4.13365 -1.589861,-8.90323 v -22.13085 c 0.572349,0.0636 1.144701,0.0636 1.717049,0.0636 h 1.589862 c 1.208294,0 2.73456,-0.0636 4.642393,-0.1272 l 25.692152,35.4857 h 19.84146 c 0.25437,-0.82674 0.50875,-1.39908 0.82672,-1.71705 0.50875,-0.57235 1.2719,-0.82673 2.22581,-0.82673 0.95392,0 3.24332,0.57236 6.9318,1.78064 3.62487,1.14471 6.04146,1.84425 7.18617,2.03502 1.97142,0.31797 4.00644,0.50875 6.23225,0.50875 6.99538,0 12.71888,-2.09861 17.1705,-6.23223 4.4516,-4.13365 6.67741,-9.09402 6.67741,-14.81751 0,-3.05254 -0.69954,-5.97788 -2.09861,-8.71244 z M 19.876543,171.09898 h 2.670966 c 1.780644,0 3.497695,0.44516 5.15115,1.33549 1.144699,0.69953 1.907831,1.46266 2.289398,2.41659 0.508756,1.20828 0.699539,3.75207 0.699539,7.63132 v 48.96772 c 0,4.57879 -0.445161,7.44054 -1.335483,8.58524 -1.399078,1.84424 -3.688477,2.73456 -6.804604,2.73456 h -2.670966 v 2.09862 h 32.496753 v -2.09862 h -2.73456 c -1.780644,0 -3.497693,-0.44516 -5.087556,-1.33548 -1.208292,-0.69954 -1.971426,-1.46267 -2.352992,-2.41659 -0.508755,-1.20829 -0.699539,-3.75206 -0.699539,-7.63134 v -48.9677 c 0,-4.57879 0.445161,-7.44055 1.399077,-8.58525 1.399078,-1.84423 3.688477,-2.73456 6.74101,-2.73456 h 2.73456 v -2.09861 H 19.876543 Z"/>
</svg>
