<?xml version="1.0" encoding="UTF-8" standalone="no"?>
<svg
   xmlns:dc="http://purl.org/dc/elements/1.1/"
   xmlns:cc="http://creativecommons.org/ns#"
   xmlns:rdf="http://www.w3.org/1999/02/22-rdf-syntax-ns#"
   xmlns:svg="http://www.w3.org/2000/svg"
   xmlns="http://www.w3.org/2000/svg"
   xmlns:sodipodi="http://sodipodi.sourceforge.net/DTD/sodipodi-0.dtd"
   xmlns:inkscape="http://www.inkscape.org/namespaces/inkscape"
   id="Layer_1"
   viewBox="0 0 460 177"
   version="1.1"
   sodipodi:docname="IRS-logo.svg"
   inkscape:version="0.92.2 5c3e80d, 2017-08-06">
  <metadata
     id="metadata13">
    <rdf:RDF>
      <cc:Work
         rdf:about="">
        <dc:format>image/svg+xml</dc:format>
        <dc:type
           rdf:resource="http://purl.org/dc/dcmitype/StillImage" />
        <dc:title />
      </cc:Work>
    </rdf:RDF>
  </metadata>
  <defs
     id="defs11" />
  <sodipodi:namedview
     pagecolor="#ffffff"
     bordercolor="#666666"
     borderopacity="1"
     objecttolerance="10"
     gridtolerance="10"
     guidetolerance="10"
     inkscape:pageopacity="0"
     inkscape:pageshadow="2"
     inkscape:window-width="1145"
     inkscape:window-height="687"
     id="namedview9"
     showgrid="false"
     inkscape:zoom="1.9921965"
     inkscape:cx="230"
     inkscape:cy="88.5"
     inkscape:window-x="314"
     inkscape:window-y="114"
     inkscape:window-maximized="0"
     inkscape:current-layer="Layer_1" />
  <path
     id="logo"
     d="m 45.1,135.2 c 2.6,-2.7 11.8,-12.2 13.2,-17.3 1.8,-6.2 3.2,-20.7 3.2,-24 0,0 -9.1,6.1 -13.9,11.1 -2,2.2 -4.9,5.9 -4.9,5.9 -0.9,-5.2 0.3,-11.1 2.6,-14.7 3.2,-4.9 14.3,-14.5 15.8,-18.4 2.4,-6.2 2,-11.7 4.1,-18.5 -7.5,2.4 -16.7,8.2 -21.1,12.9 -0.6,-7.3 1.7,-12.7 6.7,-16.5 7.1,-5.4 16.4,-8.5 22.5,-10.2 5.2,-1.6 13.6,-3.2 17.9,-5.3 7.8,-3.8 15.3,-14.4 17,-20 -2.5,0 -11.7,-0.6 -20.7,3 -3.2,1.3 -4.8,4.3 -6.3,6.7 -1.6,2.6 -3.1,4.6 -4.4,6.4 -3.8,5.6 -8.1,8.2 -13.9,9.7 0.2,-0.5 3.7,-2.6 6.3,-8.2 2.2,-4.6 4.8,-14 4.9,-14.6 -4.9,0.6 -7.9,2 -13,4.1 -5.4,2.2 -7.1,4.4 -8.3,6.5 -3.4,5.6 -2.6,21.1 -9.8,27.2 0.3,-8.2 2,-17 -0.9,-27.2 -15,5.9 -17.8,11.1 -16.7,17.6 1.3,8.4 10.9,12.3 15,19.3 1.2,2.1 1.7,5 1.8,5.2 0.3,0.1 -2.9,4.2 -2,12.1 0,0 -3,-5.8 -5.8,-9.4 C 30,72.9 21.4,64 21.4,64 c -1.7,22.9 1.1,27.3 2.3,29.3 2.8,4.9 13.6,12.5 15.9,16.9 1.1,2.4 1.4,3.3 1.4,3.2 0.4,0.9 -2.2,3.8 -1.7,7.7 0.1,1.4 0.5,3.2 0.8,5.3 0,0 -3.2,-4.7 -7.5,-9.7 -4,-4.6 -11.8,-10 -11.8,-10 -0.5,2.5 0.8,15.3 1.1,17.3 1,6.5 1.3,12.5 6.6,17.9 4.7,4.7 19.7,10.9 22.9,12 0,0 -0.6,-2.9 -2,-7 -1.7,-4.7 -4.4,-11.7 -4.3,-11.7 z M 174,39.1 C 172.2,36 153.2,27.4 125.8,21.8 c -11.3,12 -11.3,16.8 -11.5,18.8 -0.3,2 3.7,7.1 7.8,12.3 7.5,9.6 9.5,11.4 10.6,14.3 2.2,5.5 -1.4,17.9 -4,29.3 0,0 -6.7,-24.2 -9.8,-39.9 -0.3,-1.5 0.3,-2.4 0.3,-2.3 -16.9,-1.6 -28.3,-2.4 -30.3,6.4 -7.8,0 -11.3,2.2 -12.1,3.5 -2,3.3 0.4,10.1 1.7,13.5 1.1,-2.7 8,-2.2 10.3,-2.1 1,0 1,0.6 1.3,1.2 l 0.1,32.8 h -20 l -17.3,46 c 8,3.8 16.4,6.8 21.6,6.8 5.2,0 18.1,-6.7 19.9,-6.8 1.7,0 14.7,6.8 20,6.8 5.2,0 13.5,-2.6 21.6,-6.8 l -17.3,-46 H 98.8 V 78.5 c -0.3,-2.1 -1.3,-2.8 -2,-2.9 h 10.1 c -1.5,-5.9 -3.5,-10 -6.3,-10.3 0.8,-1.2 1.4,-1.6 2.6,-2.7 h -7.8 c 0.8,-4.1 10.9,-2.6 15.3,-2.3 4.5,22.1 12.9,51.7 13.3,52.2 0.4,0.5 7.5,3.1 8.4,3.2 4.1,-8.8 10.3,-34.8 10.7,-41.1 5.2,1.8 3.1,8.7 2,15.5 -5.9,35.7 -10.5,46.4 -11.9,53 5.2,-1.1 8.4,-2 8.9,-2.6 0.8,-0.8 3.2,-6.8 5.3,-13.5 3,-9.7 8,-34.3 7.7,-43.9 0,-2.3 -2,-4.7 -5.5,-6.5 0,0 1.8,-3 2.6,-4.9 1.1,-2.5 2.3,-6.8 2.3,-6.8 2,0.6 3.8,1.5 4.1,3.5 1.1,9.4 0.5,10.2 -0.6,27.5 -0.3,5.5 -2.3,16.4 -4.3,27.8 -3.7,21 -7.2,29.9 -7.2,33.1 5.5,-1.8 9.7,-3.1 10.1,-3.8 0.5,-1 4.6,-11.1 7.5,-26.4 1.2,-6.5 2.1,-13 3.2,-19.6 1.5,-8.8 1.8,-17.9 1.8,-25.5 0,-11.1 1.3,-11.2 -6.9,-15.5 3.1,-9.1 2.5,-15 1.7,-16.7 -1.4,-3.2 -3.1,-3.2 -10.4,-2.7 2.6,2.4 1.8,7.4 1.2,10.3 -1.4,-1.2 -0.9,-3.2 -8.6,-2.9 -1.2,-12.6 -3.5,-14 -3.8,-14.4 -1.1,-1.4 -7.5,-0.8 -9.5,0 1.4,0.9 4.3,10.9 2.9,14.7 -0.9,-1.2 -11.8,-13.5 -11,-15.8 0.5,-1.4 1.2,-2.9 4.9,-7.3 13,2.3 35.2,10.5 36.4,12.9 1.4,2.8 2.7,6.1 3.4,11.1 1.2,7.3 3.4,24.6 2.3,51 -1.1,27.3 -4.7,42.7 -4.6,41.9 4.1,-1.3 10.8,-7.4 11.3,-8.8 1.7,-4.5 2.6,-20.5 3.2,-35.2 0.6,-14.6 -1,-33.2 -1.8,-40.1 C 177.5,47.3 176.3,42.9 174,39.1 Z M 74.5,152.8 c -3.9,0 -10.1,-0.6 -10.1,-0.6 l 10.1,-29 9.3,29 c -0.1,0 -5.7,0.6 -9.3,0.6 z m 49.9,-0.6 c 0,0 -6.2,0.6 -10.1,0.6 -3.6,0 -9.3,-0.6 -9.3,-0.6 l 9.3,-29 z M 98.7,129.6 v -11.1 h 8.7 l -13,36.1 -12.9,-36.1 h 8.6 v 7.9 c 0,0 0,0.7 0.3,0.8 1.2,0.6 1.4,0.6 1.4,0.6 z M 99.8,71 h -15 C 83.7,67.5 84.7,66.6 88,66.3 94.1,65.7 99.3,65.7 99.8,71 Z M 142,55.2 c 5.5,-0.9 2.9,8.8 1.5,12.6 -2,-4.7 -3.5,-7.3 -6.9,-11.7 1.9,-0.6 3.4,-0.6 5.4,-0.9 z" />
</svg>
